<?xml version="1.0" standalone="no"?>
<!DOCTYPE svg PUBLIC "-//W3C//DTD SVG 20010904//EN"
 "http://www.w3.org/TR/2001/REC-SVG-20010904/DTD/svg10.dtd">
<svg version="1.0" xmlns="http://www.w3.org/2000/svg"
 width="384.000000pt" height="375.000000pt" viewBox="0 0 384.000000 375.000000"
 preserveAspectRatio="xMidYMid meet">

<g transform="translate(0.000000,375.000000) scale(0.100000,-0.100000)"
fill="#000000" stroke="none">
<path d="M0 1875 l0 -1875 1920 0 1920 0 0 1875 0 1875 -1920 0 -1920 0 0
-1875z m1720 1639 c25 -12 70 -43 100 -71 l55 -51 0 -208 c0 -115 -1 -489 -2
-831 -3 -615 -3 -623 -23 -623 -18 0 -20 7 -20 80 l0 80 -63 0 c-48 0 -68 -4
-79 -17 -27 -31 -29 -57 -8 -98 25 -49 25 -54 0 -48 -12 3 -27 18 -35 34 -26
48 -82 51 -103 4 -10 -23 -51 -48 -61 -39 -2 1 7 19 19 39 26 42 21 77 -13
100 -20 13 -45 13 -188 4 -164 -11 -164 -11 -216 -46 -35 -24 -54 -45 -58 -63
-4 -16 -15 -30 -26 -33 -17 -5 -18 -1 -13 33 11 65 0 84 -67 120 -150 80 -218
196 -203 346 6 54 4 66 -15 92 -26 37 -27 91 -2 140 14 27 18 50 14 83 -6 54
17 144 52 199 28 45 76 86 131 113 64 30 85 75 77 163 -12 149 50 241 208 305
84 34 105 50 165 122 68 83 106 99 229 95 73 -3 112 -9 145 -24z m702 11 c57
-20 103 -68 127 -131 l19 -49 74 -15 c41 -9 95 -28 120 -43 102 -60 161 -187
137 -297 -23 -110 -23 -110 -2 -110 11 0 47 -14 81 -30 153 -77 210 -228 158
-422 -17 -62 -17 -69 -2 -114 21 -63 21 -195 -1 -260 -23 -69 -91 -132 -187
-174 -57 -25 -75 -37 -72 -49 35 -117 32 -185 -10 -269 -41 -78 -113 -129
-211 -145 -74 -13 -103 -29 -103 -56 0 -10 -13 -38 -29 -63 -76 -120 -299
-129 -440 -18 -28 22 -57 56 -65 75 -12 28 -15 193 -17 1022 -3 1097 -7 1024
63 1076 37 28 110 66 148 78 44 13 165 10 212 -6z m-1102 -2900 l0 -185 -34 0
c-19 0 -36 5 -38 12 -3 9 -14 7 -40 -5 -44 -21 -59 -21 -103 -3 -54 23 -77 68
-72 145 3 58 6 66 40 97 30 28 45 34 80 34 24 0 52 -7 63 -15 31 -23 34 -19
34 45 l0 60 35 0 35 0 0 -185z m1130 125 l0 -61 30 16 c37 19 90 19 118 -1 40
-28 52 -66 52 -169 l0 -95 -35 0 -35 0 0 68 c0 74 -13 131 -32 144 -23 14 -57
9 -78 -12 -17 -17 -20 -33 -20 -110 l0 -90 -35 0 -35 0 0 185 0 185 35 0 35 0
0 -60z m-1870 22 c19 -9 45 -33 58 -52 l24 -35 -37 -3 c-27 -2 -43 3 -66 22
-50 43 -131 28 -157 -29 -26 -56 -6 -141 37 -165 35 -18 87 -12 119 15 28 23
102 37 102 18 0 -15 -53 -74 -78 -87 -74 -37 -150 -26 -212 30 -38 35 -63 99
-55 142 2 9 6 29 9 44 8 36 53 88 91 104 43 19 124 17 165 -4z m1267 -98 l78
-116 3 116 3 116 34 0 35 0 0 -175 0 -175 -37 0 c-37 0 -40 3 -113 113 l-75
112 -3 -112 -3 -113 -34 0 -35 0 0 175 0 175 34 0 c33 0 38 -6 113 -116z m440
82 c30 -36 26 -60 -10 -64 -20 -3 -35 4 -52 22 -13 14 -30 26 -38 26 -26 0
-49 -26 -45 -51 2 -20 15 -28 68 -47 35 -13 72 -30 81 -38 24 -22 32 -61 19
-99 -15 -45 -84 -80 -137 -70 -54 10 -87 30 -101 60 -18 40 -15 45 27 45 31 0
41 -4 46 -20 15 -47 99 -31 93 18 -3 23 -12 30 -68 50 -99 34 -132 86 -96 151
22 39 54 52 125 48 55 -3 67 -7 88 -31z m-1371 -52 c87 -42 98 -185 18 -241
-112 -79 -254 10 -230 142 8 39 49 93 80 105 34 14 96 11 132 -6z m667 -3 c38
-24 54 -49 62 -95 10 -51 0 -56 -112 -56 -97 0 -107 -6 -73 -40 24 -24 57 -26
88 -4 13 9 37 14 60 12 l37 -3 -35 -36 c-48 -49 -103 -59 -164 -29 -97 46
-104 195 -13 250 41 26 113 26 150 1z m1303 4 c25 -19 34 -19 34 1 0 11 8 14
33 12 l32 -3 3 -137 3 -138 -36 0 c-24 0 -35 4 -35 15 0 12 -6 12 -37 -5 -45
-24 -62 -25 -108 -6 -92 39 -103 205 -17 258 33 21 102 23 128 3z m244 0 c0
-19 9 -19 34 0 32 24 46 18 46 -19 0 -30 -4 -35 -30 -41 -41 -9 -50 -31 -50
-124 l0 -81 -35 0 -35 0 0 140 0 140 35 0 c24 0 35 -5 35 -15z m352 -22 c24
-24 32 -42 36 -82 l5 -51 -102 0 c-81 0 -101 -3 -101 -14 0 -19 39 -46 67 -46
12 0 28 7 37 15 16 16 86 21 86 6 0 -5 -13 -23 -29 -39 -74 -74 -203 -38 -230
64 -18 70 15 149 74 175 11 5 44 7 73 6 44 -3 59 -9 84 -34z"/>
<path d="M1474 3479 c-45 -13 -108 -85 -99 -113 4 -11 7 -40 6 -63 -3 -76 37
-125 111 -138 36 -7 44 -2 175 95 76 56 139 108 141 115 5 20 -85 83 -141 100
-55 16 -144 18 -193 4z"/>
<path d="M1684 3207 l-121 -92 -6 -59 c-6 -68 -10 -61 101 -184 38 -43 87 -98
108 -124 22 -26 45 -47 52 -47 9 -1 12 65 12 299 0 234 -3 300 -12 299 -7 0
-68 -42 -134 -92z"/>
<path d="M1159 3255 c-97 -50 -145 -131 -137 -229 4 -46 11 -62 41 -95 20 -23
37 -49 37 -59 0 -26 28 -62 49 -62 9 0 59 42 109 94 l92 93 -6 46 c-5 33 -2
51 10 68 9 13 16 32 16 42 0 27 -37 94 -62 111 -32 23 -96 19 -149 -9z"/>
<path d="M1486 2949 c-13 -19 -16 -51 -16 -169 l0 -146 31 -32 c17 -18 35 -32
39 -32 15 0 254 50 258 54 4 4 -206 253 -273 325 l-22 23 -17 -23z"/>
<path d="M1292 2864 c-56 -59 -89 -102 -84 -109 16 -27 145 -135 161 -135 9 0
25 6 34 13 16 11 17 30 15 167 -3 133 -5 155 -19 158 -10 2 -52 -35 -107 -94z"/>
<path d="M894 2790 c-81 -46 -119 -106 -130 -204 -7 -62 7 -84 57 -92 36 -6
39 -4 171 130 129 131 134 137 116 153 -10 9 -44 20 -76 24 -31 4 -64 10 -72
13 -8 3 -38 -7 -66 -24z"/>
<path d="M1024 2585 c-116 -121 -150 -165 -129 -165 20 0 375 84 395 93 17 8
26 22 28 43 3 27 -5 38 -60 85 -35 30 -71 61 -82 69 -17 13 -28 4 -152 -125z"/>
<path d="M1678 2545 c-53 -12 -107 -25 -121 -29 -31 -7 -41 -31 -25 -59 14
-27 279 -307 290 -307 9 0 11 344 2 389 -8 37 -12 37 -146 6z"/>
<path d="M1126 2424 c-197 -44 -236 -56 -236 -74 0 -11 61 -52 188 -125 112
-64 109 -66 227 120 82 129 68 135 -179 79z"/>
<path d="M1444 2422 c-38 -4 -55 -22 -127 -138 -60 -97 -70 -139 -39 -167 9
-8 51 -34 92 -57 41 -23 87 -49 101 -58 24 -14 32 -14 69 -2 24 8 46 23 51 34
7 18 29 199 29 242 0 16 -105 131 -130 143 -8 3 -29 5 -46 3z"/>
<path d="M784 2269 c-28 -31 -26 -158 4 -215 33 -64 66 -98 120 -123 l50 -23
58 28 c50 25 63 38 96 94 21 36 38 72 38 81 0 24 -23 41 -157 113 -133 73
-176 82 -209 45z"/>
<path d="M1659 2228 c0 -2 -6 -48 -14 -103 -14 -110 -12 -121 36 -167 23 -23
38 -28 77 -28 26 0 53 5 60 12 7 7 12 38 12 69 l0 57 -76 81 c-65 69 -92 91
-95 79z"/>
<path d="M1174 2045 c-43 -46 -77 -112 -69 -132 5 -14 25 -15 153 -9 177 8
222 14 222 31 0 14 -204 130 -245 141 -21 5 -32 -1 -61 -31z"/>
<path d="M2193 3471 c-74 -29 -131 -76 -142 -118 -7 -25 -11 -352 -11 -997 0
-908 1 -958 18 -952 9 4 59 30 110 58 82 46 96 57 115 97 16 33 29 47 46 49
42 6 71 -7 88 -42 15 -32 15 -35 -6 -65 -26 -37 -56 -46 -96 -31 -26 10 -40 5
-136 -41 -103 -50 -127 -69 -113 -91 16 -26 121 -80 178 -92 64 -14 145 -8
183 12 38 21 75 72 93 128 l18 58 66 3 c42 2 81 10 104 22 51 27 79 51 66 57
-6 3 -40 23 -75 46 -35 23 -143 86 -239 140 -96 55 -183 108 -192 120 -15 17
-18 40 -18 138 0 111 -1 118 -25 144 -35 37 -34 88 1 115 34 27 64 27 98 0 34
-27 35 -76 2 -116 -22 -26 -25 -40 -27 -130 -4 -122 5 -140 91 -183 33 -17 84
-45 113 -64 28 -18 109 -66 180 -106 140 -80 148 -80 167 -11 21 76 0 205 -39
245 -11 10 -78 52 -148 91 l-128 71 -5 141 c-5 134 -7 141 -33 172 -51 61 -24
141 48 141 69 0 98 -81 50 -138 -24 -28 -25 -36 -25 -154 0 -139 -2 -134 80
-180 25 -14 82 -46 127 -72 l82 -48 57 17 c72 21 163 107 182 171 15 51 16
163 1 201 -16 41 -13 139 6 211 15 58 14 116 -3 126 -4 2 -54 -24 -112 -58
l-105 -62 -3 -118 -3 -118 31 -34 c16 -19 30 -42 30 -50 0 -17 -62 -84 -78
-84 -5 0 -24 10 -43 23 -42 28 -51 77 -20 111 33 36 42 75 40 182 -2 71 2 108
10 118 7 8 56 39 109 67 106 56 132 75 132 95 0 40 -169 154 -228 154 -12 0
-100 -44 -195 -99 -282 -161 -300 -173 -309 -209 -16 -62 -89 -82 -133 -37
-32 31 -32 69 1 102 23 23 31 25 77 20 47 -6 56 -3 139 44 48 28 93 60 99 72
8 13 10 60 7 134 -5 106 -7 116 -32 142 -49 51 -25 126 44 137 29 5 40 1 63
-21 37 -37 36 -78 -3 -122 -29 -33 -30 -36 -30 -138 0 -58 3 -105 6 -105 21 0
197 106 218 130 13 17 30 55 36 85 21 101 -7 184 -84 252 -53 47 -117 68 -181
61 -51 -6 -60 1 -70 55 -16 83 -92 147 -174 147 l-41 0 0 -258 0 -259 24 -22
c59 -55 29 -140 -50 -141 -68 0 -100 92 -49 140 l25 23 0 253 c0 139 -3 255
-7 257 -5 3 -27 -3 -50 -12z"/>
<path d="M1125 635 c-49 -48 -17 -135 49 -135 53 0 86 53 66 105 -22 58 -74
71 -115 30z"/>
<path d="M800 640 c-43 -43 -33 -120 18 -138 57 -20 109 30 98 93 -12 60 -76
85 -116 45z"/>
<path d="M1456 638 c-9 -12 -16 -26 -16 -30 0 -5 29 -8 65 -8 70 0 82 11 47
43 -27 25 -78 22 -96 -5z"/>
<path d="M2796 639 c-20 -16 -26 -29 -26 -60 0 -49 27 -79 73 -79 70 0 98 89
43 136 -33 29 -55 30 -90 3z"/>
<path d="M3337 642 c-31 -34 -21 -42 48 -42 70 0 82 11 47 43 -25 22 -75 21
-95 -1z"/>
</g>
</svg>
